<svg width="122" height="45" viewBox="0 0 122 45" fill="none" xmlns="http://www.w3.org/2000/svg">
  <path d="M20.5864 23.7369H14.5003L10.3375 18.0304L6.17465 23.7369H0V17.6002H2.3408L6.60485 11.7419V0.645222H14.0954V11.7419L18.3595 17.6002H20.6117V23.7369H20.5864ZM23.0158 44.8547L6.25057 41.198V26.685H39.7683V41.198L23.0031 44.8547H23.0158ZM23.0158 38.6801L32.3284 36.6682V32.6826H13.6905V36.6682L23.0031 38.6801H23.0158ZM39.781 24.5847H32.4802V14.9937H29.532V24.3569H22.2313V0.290921H29.532V8.71781H32.4802V0.0125732H39.781V24.5973V24.5847Z" fill="#1EBBEF"/>
  <path d="M45.6771 29.5953V24.395H58.2289V22.5729H41.8433V17.0942H82.434V22.5729H66.099V24.395H78.6508V35.8712H53.3702V37.3643L62.1766 39.2369L73.4125 37.0353H78.7014V41.5777L62.1766 44.8042L45.6898 41.2487V31.0378H70.9704V29.5827H45.6898L45.6771 29.5953ZM78.6381 1.07556V15.3987H45.6771V1.07556H78.6381ZM70.8692 9.9706V6.50368H53.4587V9.9706H70.8692Z" fill="#1EBBEF"/>
  <path d="M107.677 37.3644H84.9648V2.01194H106.741V8.1866H92.8349V15.538H105.564V21.5734H92.8349V31.1771H107.677V37.3517V37.3644ZM114.092 0.00012207H122V43.7288H114.092V21.5355H107.955V15.3608H114.092V0.00012207Z" fill="#1EBBEF"/>
</svg>
